<svg width="327.28001708984374px" height="124.439990234375px" xmlns="http://www.w3.org/2000/svg" viewBox="86.35999145507813 12.780004882812499 327.28001708984374 124.439990234375" style="background: rgba(0, 0, 0, 0) none repeat scroll 0% 0%;" preserveAspectRatio="xMidYMid"><defs><linearGradient id="editing-gradow-gradient" x1="0" x2="1" y1="0.5" y2="0.5" gradientUnits="objectBoundingBox"><stop offset="0" stop-color="#f0f"></stop><stop offset="1" stop-color="#0ff"></stop></linearGradient><filter id="editing-gradow-filter" x="-100%" y="-100%" width="300%" height="300%"><feFlood flood-color="#fffcd9" result="flood"></feFlood><feComposite operator="in" in2="SourceAlpha" in="flood" result="shadow"></feComposite><feOffset dx="-4" dy="-4" in="SourceGraphic" result="offset-1"></feOffset><feOffset dx="4" dy="4" in="shadow" result="offset-2"></feOffset><feMerge><feMergeNode in="offset-2"></feMergeNode><feMergeNode in="offset-1"></feMergeNode></feMerge></filter></defs><g filter="url(#editing-gradow-filter)"><g transform="translate(139.666015625, 98.6796875)"><path d="M24.96-4.80L24.96-4.80L24.96-4.80Q24.96-9.28 26.75-18.24L26.75-18.24L17.28-18.24L13.76 0L0.38 0L8.51-42.24L22.02-42.24L18.30-23.36L27.78-23.36L31.30-42.24L44.80-42.24L44.80-42.24Q43.90-37.50 42.75-32.19L42.75-32.19L40.58-21.76L40.58-21.76Q38.14-9.60 38.14-4.29L38.14-4.29L38.14-4.29Q38.14-2.11 38.85-0.90L38.85-0.90L38.85-0.90Q35.65 1.28 31.90 1.28L31.90 1.28L31.90 1.28Q28.16 1.28 26.56-0.51L26.56-0.51L26.56-0.51Q24.96-2.30 24.96-4.80ZM66.88-2.69L66.88-2.69L66.88-2.69Q63.81 1.28 56.19 1.28L56.19 1.28L56.19 1.28Q52.22 1.28 49.34-1.12L49.34-1.12L49.34-1.12Q46.46-3.52 46.46-6.98L46.46-6.98L46.46-6.98Q46.46-8.90 46.66-9.86L46.66-9.86L50.94-32.64L63.94-33.92L59.26-9.22L59.26-9.22Q59.01-7.81 59.01-6.98L59.01-6.98L59.01-6.98Q59.01-3.26 61.25-3.26L61.25-3.26L61.25-3.26Q63.74-3.26 65.54-6.66L65.54-6.66L65.54-6.66Q66.11-7.74 66.37-9.15L66.37-9.15L70.91-32.64L83.52-33.92L78.78-8.96L78.78-8.96Q78.59-8 78.59-6.98L78.59-6.98L78.59-6.98Q78.59-5.95 79.17-4.83L79.17-4.83L79.17-4.83Q79.74-3.71 81.60-3.46L81.60-3.46L81.60-3.46Q81.22-1.92 79.87-0.90L79.87-0.90L79.87-0.90Q77.06 1.28 74.02 1.28L74.02 1.28L74.02 1.28Q70.98 1.28 69.18 0.19L69.18 0.19L69.18 0.19Q67.39-0.90 66.88-2.69ZM103.49-30.34L103.49-30.34L103.49-30.34Q106.94-33.92 114.24-33.92L114.24-33.92L114.24-33.92Q118.27-33.92 120.48-31.78L120.48-31.78L120.48-31.78Q122.69-29.63 122.69-25.70L122.69-25.70L122.69-25.70Q122.69-21.76 120.48-18.98L120.48-18.98L120.48-18.98Q118.27-16.19 114.18-15.04L114.18-15.04L114.18-15.04Q114.50-13.76 114.94-12.42L114.94-12.42L115.84-9.86L115.84-9.86Q117.06-6.59 118.02-5.44L118.02-5.44L118.02-5.44Q118.98-4.29 120.26-3.90L120.26-3.90L120.26-3.90Q119.55-1.28 116.99 0.13L116.99 0.13L116.99 0.13Q114.94 1.28 112.13 1.28L112.13 1.28L112.13 1.28Q103.87 1.28 102.78-11.46L102.78-11.46L102.78-11.46Q102.59-13.25 102.59-15.04L102.59-15.04L102.59-15.04Q105.79-15.94 108.03-18.94L108.03-18.94L108.03-18.94Q110.27-21.95 110.27-25.47L110.27-25.47L110.27-25.47Q110.27-28.99 107.78-28.99L107.78-28.99L107.78-28.99Q105.98-28.99 104.58-27.01L104.58-27.01L104.58-27.01Q103.17-25.02 102.53-21.63L102.53-21.63L98.30 0L85.38 1.28L94.34-44.80L107.20-46.08L105.73-38.46L105.73-38.46Q104.77-33.09 103.49-30.34ZM146.18-2.69L146.18-2.69L146.18-2.69Q143.10 1.28 135.49 1.28L135.49 1.28L135.49 1.28Q131.52 1.28 128.64-1.12L128.64-1.12L128.64-1.12Q125.76-3.52 125.76-6.98L125.76-6.98L125.76-6.98Q125.76-8.90 125.95-9.86L125.95-9.86L130.24-32.64L143.23-33.92L138.56-9.22L138.56-9.22Q138.30-7.81 138.30-6.98L138.30-6.98L138.30-6.98Q138.30-3.26 140.54-3.26L140.54-3.26L140.54-3.26Q143.04-3.26 144.83-6.66L144.83-6.66L144.83-6.66Q145.41-7.74 145.66-9.15L145.66-9.15L150.21-32.64L162.82-33.92L158.08-8.96L158.08-8.96Q157.89-8 157.89-6.98L157.89-6.98L157.89-6.98Q157.89-5.95 158.46-4.83L158.46-4.83L158.46-4.83Q159.04-3.71 160.90-3.46L160.90-3.46L160.90-3.46Q160.51-1.92 159.17-0.90L159.17-0.90L159.17-0.90Q156.35 1.28 153.31 1.28L153.31 1.28L153.31 1.28Q150.27 1.28 148.48 0.19L148.48 0.19L148.48 0.19Q146.69-0.90 146.18-2.69ZM212.35 1.28L212.35 1.28L212.35 1.28Q204.61 1.28 204.61-4.74L204.61-4.74L204.61-4.74Q204.61-7.36 205.73-12.45L205.73-12.45L205.73-12.45Q206.85-17.54 207.23-19.58L207.23-19.58L207.23-19.58Q208.13-24.26 208.13-25.73L208.13-25.73L208.13-25.73Q208.13-28.99 205.70-28.99L205.70-28.99L205.70-28.99Q204.10-28.99 202.56-26.78L202.56-26.78L202.56-26.78Q201.02-24.58 200.32-20.16L200.32-20.16L196.35 0L183.87 1.28L187.33-16.13L187.33-16.13Q187.90-19.01 188.42-22.27L188.42-22.27L188.42-22.27Q188.93-25.54 188.93-26.05L188.93-26.05L188.93-26.05Q188.93-28.99 186.75-28.99L186.75-28.99L186.75-28.99Q185.28-28.99 183.68-26.82L183.68-26.82L183.68-26.82Q182.08-24.64 181.18-20.16L181.18-20.16L177.28 0L164.67 1.28L171.39-32.64L181.82-33.92L180.74-27.46L180.74-27.46Q182.40-30.91 185.47-32.42L185.47-32.42L185.47-32.42Q188.54-33.92 193.34-33.92L193.34-33.92L193.34-33.92Q196.10-33.92 197.89-32.58L197.89-32.58L197.89-32.58Q199.68-31.23 200.26-29.06L200.26-29.06L200.26-29.06Q201.34-31.30 204.13-32.61L204.13-32.61L204.13-32.61Q206.91-33.92 210.34-33.92L210.34-33.92L210.34-33.92Q213.76-33.92 215.46-33.18L215.46-33.18L215.46-33.18Q217.15-32.45 218.18-31.23L218.18-31.23L218.18-31.23Q219.90-28.99 219.90-24.90L219.90-24.90L219.90-24.90Q219.90-20.86 218.18-12.48L218.18-12.48L218.18-12.48Q217.28-8.38 217.28-6.88L217.28-6.88L217.28-6.88Q217.28-5.38 218.14-4.48L218.14-4.48L218.14-4.48Q219.01-3.58 220.29-3.46L220.29-3.46L220.29-3.46Q219.65-1.28 217.44 0L217.44 0L217.44 0Q215.23 1.28 212.35 1.28Z" fill="url(#editing-gradow-gradient)"></path></g></g><style>text {
  font-size: 64px;
  font-family: Arial Black;
  dominant-baseline: central;
  text-anchor: middle;
}</style></svg>